<?xml version="1.0" encoding="UTF-8" standalone="no"?><!DOCTYPE svg PUBLIC "-//W3C//DTD SVG 1.1//EN"
        "http://www.w3.org/Graphics/SVG/1.1/DTD/svg11.dtd">
<svg width="100%" height="100%" viewBox="0 0 2134 2134" version="1.1" xmlns="http://www.w3.org/2000/svg"
     xml:space="preserve" xmlns:serif="http://www.serif.com/"
     style="fill-rule:evenodd;clip-rule:evenodd;stroke-linejoin:round;stroke-miterlimit:2;"><rect id="Admin-Favicon" serif:id="Admin Favicon" x="0" y="0" width="2133.333" height="2133.333" style="fill:none;"/>
    <clipPath id="_clip1"><rect id="Admin-Favicon1" serif:id="Admin Favicon" x="0" y="0" width="2133.333" height="2133.333"/></clipPath>
    <g clip-path="url(#_clip1)"><rect x="0" y="-0" width="2133.333" height="2133.333" style="fill:#2b2a29;"/>
        <g><path d="M1119.241,201.835c-98.395,-0.379 -132.999,3.006 -144.509,4.132c-54.12,5.294 -54.591,-0.356 -108.15,8.645c-25.374,4.265 -25.641,1.032 -50.957,5.161c-120.524,19.659 -120.542,19.556 -123.304,20.257c-55.946,14.204 -149.169,30.737 -280.703,83.212c-151.467,60.427 -301.005,178.67 -335.437,293.803c-9.628,32.192 -8.829,32.332 -13.807,65.554c-4.231,28.238 17.83,68.284 32.722,84.942c31.409,35.135 109.411,59.761 140.135,84.145c1.627,1.291 17.037,13.522 1.89,25.892c-12.454,10.171 -84.223,-8.056 -130.539,-41.955c-109.009,-79.783 -110.435,-149.629 -104.818,-210.304c2.358,-25.475 -3.043,-25.378 -1.135,-50.768c1.847,-24.575 20.218,-65.652 22.935,-70.94c73.528,-143.117 260.825,-238.971 294.539,-259.698c33.859,-20.816 149.134,-77.747 309.358,-111.779c51.961,-11.037 58.348,-10.305 65.603,-12.19c17.825,-4.631 17.776,-4.282 36.129,-5.517c17.769,-1.196 20.253,-5.192 50.595,-7.216c33.245,-2.218 33.062,-3.493 50.177,-4.692c93.884,-6.576 133.144,-6.81 144.736,-6.879c132.649,-0.79 236.683,17.632 252.774,19.149c26.05,2.457 25.331,6.017 51.168,8.924c15.004,1.688 120.07,26.711 136.684,32.376c81.307,27.721 192.767,69.247 261.674,193.558c19.111,34.478 24.066,53.28 28.517,65.42c3.604,9.83 10.122,43.591 10.574,58.277c4.254,138.024 -69.215,220.1 -84.214,237.85c-6.074,7.188 -28.469,33.69 -85.477,80.82c-2.499,2.066 -19.655,16.25 -31.961,24.936c-80.212,56.62 -162.999,108.407 -381.608,173.498c-9.583,2.853 -60.286,15.168 -71.001,18.716c-13.745,4.551 -15.27,2.915 -22.401,4.555c-6.864,1.578 -74.177,17.057 -86.099,18.409c-29.439,3.338 -28.723,7.208 -58.405,9.348c-16.487,1.189 -22.466,5.414 -43.42,7.092c-26.571,2.128 -90.744,11.111 -115.221,12.263c-8.097,0.381 -81.919,3.854 -101.151,5.871c-22.183,2.326 4.79,28.137 5.694,29.225c78.841,94.856 145.275,178.537 152.659,187.278c35.792,42.374 75.363,91.942 78.189,95.136c88.464,100.004 101.587,130.18 247.884,258.322c31.07,27.214 31.973,25.939 63.153,52.859c16.92,14.609 88.31,76.247 239.826,143.393c66.099,29.293 66.883,27.25 86.996,35.59c27.563,11.428 103.273,31.762 108.976,32.662c28.908,4.562 28.516,6.101 57.518,9.187c68.356,7.274 68.45,3.748 136.942,-1.707c35.537,-2.831 110.571,-30.405 149.295,-71.83c1.537,-1.644 19.344,-23.332 24.784,-33.379c13.211,-24.4 12.962,-24.475 20.176,-51.155c16.412,-60.694 -15.616,-81.727 -0.183,-109.217c2.189,-3.9 31.217,-17.392 43.065,23.318c4.339,14.908 13.428,33.346 13.408,86.256c-0.031,80.556 -34.884,146.357 -48.565,165.778c-57.369,81.434 -191.256,116.191 -259.396,118.853c-84.131,3.288 -163.796,-12.66 -166.091,-12.931c-18.711,-2.209 -27.45,-6.574 -37.015,-8.409c-7.997,-1.535 -8.059,-1.059 -42.672,-10.82c-73.353,-20.687 -141.642,-55.652 -153.416,-61.681c-123.313,-63.139 -153.518,-94.125 -179.372,-111.111c-9.641,-6.334 -85.985,-67.95 -144.034,-130.664c-114.673,-123.887 -125.891,-140.265 -165.751,-188.307c-101.887,-122.801 -213.344,-300.828 -230.749,-325.524c-46.855,-66.483 -46.32,-66.775 -50.637,-72.369c-15.217,-19.718 -28.672,-43.288 -44.955,-27.961c-2.365,2.226 -63.124,118.096 -68.532,128.408c-11.702,22.317 -126.672,241.567 -120.334,291.092c0.613,4.792 6.227,48.66 52.3,30.191c45.912,-18.404 111.928,-128.691 137.064,-127.711c19.562,0.763 2.907,24.664 1.697,26.401c-19.67,28.228 -23.827,25.227 -40.539,55.256c-11.576,20.801 -52.833,84.128 -90.985,117.695c-51.171,45.022 -81.085,36.138 -87.389,35.312c-70.185,-9.204 -76.061,-23.576 -78.68,-29.283c-19.222,-41.88 55.015,-220.375 97.127,-311.845c89.555,-194.52 93.448,-192.512 101.063,-209.49c0.486,-1.084 4.859,-10.833 -3.026,-14.536c-1.599,-0.751 -80.106,-6.382 -75.262,-63.868c6.306,-74.825 81.8,-60.89 81.878,-60.887c41.483,1.703 53.043,20.943 64.07,9.767c4.19,-4.247 30.252,-57.784 32.734,-62.884c28.685,-58.927 89.465,-154.195 105.595,-225.486c6.386,-28.222 -7.949,-32.394 5.443,-65.786c13.166,-32.828 47.902,-79.186 52.726,-85.624c25.536,-34.081 73.38,-83.872 81.903,-91.239c83.001,-71.733 148.449,-113.556 229.123,-84.777c80.126,28.583 85.675,56.217 92.96,81.665c0.298,1.041 2.795,9.763 -0.682,13.518c-6.473,6.991 -16.197,-3.747 -35.415,-2.279c-94.23,7.198 -196.178,128.83 -243.199,185.794c-28.031,33.959 -94.306,128.393 -100.259,137.637c-76.89,119.372 -91.808,145.435 -121.97,198.436c-15.05,26.446 -33.404,44.703 -3.721,50.001c18.586,3.318 18.259,5.198 42.841,5.375c50.435,0.363 50.33,-1.371 64.931,-3.96c20.771,-3.683 23.984,0.441 50.641,-6.699c21.605,-5.787 26.806,-2.668 43.579,-6.374c62.347,-13.774 125.816,-18.685 296.481,-72.106c174.69,-54.681 338.511,-148.72 420.781,-222.755c61.392,-55.247 85.069,-87.975 91.301,-96.59c56.953,-78.728 60.5,-198.178 -21.527,-280.477c-98.053,-98.378 -297.121,-113.376 -303.195,-114.516c-42.742,-8.025 -43.137,-3.278 -86.524,-7.566c-43.269,-4.276 -43.186,-3.866 -86.625,-5.47Z" style="fill:#fefefe;"/>
            <path d="M1196.154,1430.277c-0.923,0.23 -1.445,1.36 -2.368,1.591c-0.804,0.201 -0.83,-0.254 -10.344,0.578c-7.808,0.683 -7.838,-0.147 -9.068,0.198c-1.618,0.453 -2.499,2.456 -4.118,2.91c-8.103,-4.119 -14.056,-7.073 -24.257,-4.833c-9.232,2.028 -11.533,1.501 -27.929,-2.73c-10.231,-2.64 -21.828,-4.453 -23.678,-4.902c-48.958,-11.882 -83.842,-42.103 -83.928,-42.168c-21.684,-16.266 -32.568,-32.071 -40.077,-41.066c-6.683,-8.005 -35.179,-44.211 -37.225,-47.768c-13.104,-22.777 -20.978,-32.945 -27.715,-50.975c-6.637,-17.763 -13.468,-31.838 -12.986,-36.434c0.561,-5.353 2.381,-4.278 7.005,-7.085c1.064,-0.646 2.039,-1.651 3.275,-1.795c1.657,-0.193 7.351,7.02 10.327,13.808c4.821,10.999 4.932,10.897 9.857,21.851c5.41,12.034 6.569,11.346 10.156,18.385c13.911,27.3 12.96,28.015 32.486,51.608c3.578,4.324 13.122,17.512 14.112,18.631c12.253,13.846 20.216,25.83 23.339,29.155c21.705,23.112 46.323,35.051 48.83,36.452c1.646,0.92 6.912,5.759 13.442,8.169c16.154,5.962 21.241,9.492 37.668,12.378c18.822,3.306 18.715,4.148 26.803,3.848c14.182,-0.526 23.823,-5.015 37.431,-3.954c20.095,1.567 34.779,-8.664 46.385,-3.948c8.516,3.461 10.714,7.239 13.097,9.981c8.122,5.64 10.392,7.826 14.956,9.545c3.829,1.442 13.872,1.343 21.377,-0.556c1.583,-0.401 4.663,-1.18 19.961,-4.284c19.121,-3.88 24.517,-12.563 47.692,-20.588c29.393,-10.178 32.504,24.034 69.718,24.733c12.912,0.243 17.774,1.435 29.026,-1.379c15.107,-3.778 17.511,-6.517 18.573,-7.726c9.16,-10.434 11.313,-9.824 39.273,-35.264c11.012,-10.02 15.386,-13.416 48.894,-22.49c28.853,-7.814 28.753,11.62 29.055,24.26c0.335,1.526 -0.03,1.585 0.777,3.543c2.206,5.351 2.156,6.694 3.298,10.734c2.783,9.845 0.541,11.953 9.572,16.757c8.154,4.337 12.036,3.57 15.327,2.871c14.777,-3.137 19.786,-2.287 23.779,-2.906c10.776,-1.67 24.197,-7.61 26.495,-8.455c19.993,-7.349 18.704,-10.844 34.439,-25.956c8.017,-7.699 10.204,-5.151 22.397,-18.365c17.54,-19.01 11.455,-33.333 21.197,-44.403c5.27,-5.989 8.048,-3.129 9.614,-1.966c7.74,5.749 3.701,13.621 5.508,26.333c1.223,8.601 -0.144,14.587 4.216,23.457c2.425,4.934 6.602,15.998 19.679,13.197c13.4,-2.87 13.483,-2.346 14.613,-2.716c9.603,-3.14 16.707,-11.186 18.507,-12.949c11.145,-10.914 9.209,-14.248 22.157,-17.383c1.811,-0.439 10.285,-2.49 23.278,-0.815c17.401,2.244 17.39,2.172 34.905,2.097c1.833,-0.008 16.635,-0.072 22.748,-2.699c22.264,-9.57 31.172,-19.562 49.574,-34.16c0.269,-0.214 18.03,-12.026 29.844,-13.627c17.812,-2.415 24.931,1.92 26.772,3.041c4.101,2.497 12.895,5.69 16.317,8.711c3.625,3.201 6.168,12.293 6.365,13.431c0.504,2.911 -0.451,3.067 3.203,14.63c10.635,18.986 15.944,26.392 30.402,31.264c11.32,3.815 11.222,4.036 12.219,4.317c14.042,3.964 13.515,5.495 27.639,9.033c2.423,0.607 20.386,5.107 27.384,15.004c10.4,14.705 4.123,28.26 3.093,30.485c-5.888,12.715 -28.129,23.142 -36.678,25.922c-10.898,3.544 -15.69,6.377 -22.082,9.323c-10.158,4.681 -9.746,5.385 -15.124,8.462c-17.044,9.751 -17.883,12.986 -25.029,25.783c-5.494,9.839 -19.21,23.009 -29.974,25.168c-11.971,2.401 -12.017,1.528 -24.253,2.048c-37.257,1.583 -52.788,-14.076 -81.855,-22.179c-31.743,-8.849 -30.797,-13.022 -40.461,-12.69c-8.023,0.276 -11.782,1.659 -12.751,2.015c-5.102,1.877 -9.878,3.367 -15.595,15.379c-3.565,7.49 -0.708,8.97 -0.933,17.006c-0.02,0.711 -0.089,1.42 -0.109,2.132c-0.337,11.914 0.689,17.485 -2.186,23.236c-3.712,7.425 -5.633,11.302 -33.304,14.565c-23.966,2.826 -26.758,-4.436 -50.321,-15.415c-27.264,-12.703 -27.887,-11.649 -52.694,-28.685c-6.222,-4.273 -24.01,-10.017 -30.43,-7.98c-0.437,0.139 -11.079,5.165 -12.575,10.448c-0.841,2.97 2.18,9.46 3.122,10.9c7.283,11.143 25.702,25.496 29.958,29.054c13.207,11.04 -0.733,28.987 -5.563,31.911c-3.897,2.359 -19.024,4.838 -25.261,4.822c-13.962,-0.034 -13.953,0.421 -15.163,0.335c-16.396,-1.171 -16.398,-1.043 -32.406,-4.668c-9.079,-2.056 -8.454,-3.578 -35.538,-21.309c-11.259,-7.371 -10.132,-8.706 -18.815,-15.862c-11.203,-9.234 -18.167,-19.016 -36.623,-31.014c-17.094,-11.112 -22.307,-10.691 -29.899,-10.687c-15.298,0.008 -15.129,-1.27 -30.23,-3.98c-7.275,-1.305 -22.627,-7.734 -34.772,-11.74c-7.609,-2.51 -7.114,-4.336 -33.262,-9.066c-33.955,-6.142 -40.188,-1.191 -49.844,-0.569c-18.461,1.19 -39.205,-1.603 -39.863,-1.758c-5.821,-1.373 -22.15,-9.733 -25.753,-13.06c-0.631,-0.583 -7.686,-7.099 -7.797,-7.387c-0.63,-1.638 -6.527,-5.604 -8.256,-6.741c-1.473,-0.968 -12.992,-8.119 -20.834,-11.032c-1.205,-0.447 -12.942,-4.807 -14.867,-6.079c-0.464,-0.307 -0.714,-0.896 -1.209,-1.151c-0.346,-0.178 -0.792,0.038 -1.164,-0.073c-1.231,-0.366 -1.099,-0.6 -2.349,-0.972c-3.567,-1.552 -3.513,-1.547 -6.931,-3.498c-2.832,-1.616 -4.219,-1.4 -4.691,-1.556Z"
                  style="fill:#449e40;"/>
            <path d="M1831.176,1029.553c8.537,3.558 24.987,11.583 26.97,15.815c0.112,0.239 -0.059,10.712 -0.097,11.032c-0.124,1.044 -11.785,32.263 -24.711,42.398c-36.089,28.3 -41.556,25.554 -53.158,32.302c-10.423,6.062 -13.082,9.048 -14,10.079c-8.339,9.364 -6.564,10.506 -6.529,23.01c0.448,2.809 0.422,2.77 1.038,5.531c1.576,7.06 -5.488,18.629 -7.744,20.666c-3.49,3.152 -18.811,7.331 -26.326,8.179c-17.003,1.918 -17.3,-0.122 -33.734,4.603c-7.316,2.103 -18.132,2.455 -18.386,17.44c-0.194,11.444 3.234,10.488 8.072,20.842c3.936,8.424 4.851,7.942 6.911,13.506c5.061,13.672 14.601,21.61 4.847,34.367c-5.65,7.389 -11.673,8.457 -31.436,8.241c-4.802,-0.053 -14.389,1.318 -26.814,0.019c-26.49,-2.77 -47.751,-6.727 -49.076,-6.85c-14.943,-1.39 -41.465,-7.076 -54.581,-8.776c-2.37,-0.307 -13.719,-0.188 -16.942,1.552c-10.502,5.669 -12.356,17.974 -12.582,18.764c-1.541,5.16 -0.88,5.458 -4.135,9.786c-3.396,4.515 -6.433,5.819 -7.124,6.116c-10.33,4.437 -12.064,2.208 -17.934,3.582c-2.809,0.658 -8.163,0.869 -13.611,2.347c-0.693,0.188 -3.709,1.006 -6.481,6.212c-2.828,5.313 -0.695,22.394 -5.064,35.387c-3.826,11.381 -6.201,11.784 -10.71,14.375c-5.935,3.41 -7.593,2.542 -21.999,-1.182c-19.746,-5.105 -20.337,-8.506 -34.046,-13.887c-31.866,-12.508 -59.097,-30.717 -82.102,-28.925c-1.173,0.091 -4.134,0.322 -13.58,5.648c-18.226,10.276 -17.21,17.639 -23.607,25.374c-10.969,13.261 -21.504,-1.068 -37.868,1.042c-12.206,1.574 -12.214,1.156 -24.48,2.385c-16.347,1.637 -16.371,0.368 -32.717,1.559c-16.904,1.232 -16.892,0.763 -33.795,1.956c-9.019,0.636 -20.204,-1.138 -21.018,-4.116c-0.205,-0.749 0.838,-1.387 0.864,-2.163c0.04,-1.237 -0.589,-2.416 -0.674,-3.651c-0.064,-0.932 0.516,-4.699 0.653,-4.866c0.427,-0.522 17.024,-4.044 28.116,-7.635c6.239,-2.019 5.503,-3.889 11.909,-5.005c1.242,-0.216 2.583,-0.223 3.69,-0.825c1.916,-1.042 5.231,-11.8 5.364,-12.068c2.968,-5.955 19.246,-21.121 25.01,-25.323c39.976,-29.147 45.644,-15.931 76.582,-27.609c19.061,-7.195 22.04,-17.124 25.917,-28.325c12.385,-35.781 13.283,-35.689 13.573,-45.616c0.255,-8.744 0.502,-8.668 1.558,-17.316c3.052,-24.99 12.555,-38.301 22.752,-34.522c11.269,4.176 13.393,12.691 16.47,19.583c7.572,14.465 5.857,15.406 11.79,23.126c9.014,11.729 7.345,17.56 16.725,18.341c3.784,0.315 3.529,-1.489 7.317,-1.392c4.672,0.12 4.635,-0.142 6.159,-0.239c2.216,-0.14 3.656,1.376 11.542,-9.534c3.896,-5.39 7.24,-17.023 8.368,-24.995c1.916,-13.531 2.451,-13.42 8.762,-30.516c4.81,-13.03 10.579,-46.028 16.618,-53.13c11.397,-13.403 12.183,-16.253 22.228,-20.15c8.422,-3.267 24.15,4.044 28.422,16.949c3.817,11.534 4.133,14.876 4.259,16.211c1.417,15.009 0.076,19.293 1.944,24.462c4.485,12.408 9.139,16.843 20.417,16.339c9.063,-0.405 11.249,-0.865 14.263,-3.985c14.731,-15.253 8.254,-28.354 21.42,-41.724c7.746,-7.865 30.091,-8.418 41.119,-17.02c18.781,-14.649 9.571,-24.34 26.637,-42.423c7.98,-8.456 21.826,-15.988 21.946,-16.047c7.666,-3.729 17.915,2.218 22.138,9.748c0.592,1.056 5.242,19.63 22.536,18.619c13.952,-0.816 15.796,-3.557 17.326,-4.71c17.692,-13.345 16.326,-24.581 23.132,-31.69c11.19,-11.689 24.019,-3.869 33.8,1.313c8.052,4.266 7.571,5.04 15.859,8.794c5.822,2.637 16.376,3.711 19.671,3.002c9.868,-2.122 26.801,-3.787 31.668,-5.064c5.358,-1.406 5.412,-0.825 10.697,0.677Z"
                  style="fill:#449e40;"/></g></g></svg>