<?xml version="1.0" encoding="UTF-8" standalone="no"?>
<!DOCTYPE svg PUBLIC "-//W3C//DTD SVG 1.1//EN" "http://www.w3.org/Graphics/SVG/1.1/DTD/svg11.dtd">
<svg width="100%" height="100%" viewBox="0 0 512 512" version="1.1" xmlns="http://www.w3.org/2000/svg"
     xml:space="preserve"
     style="fill-rule:evenodd;clip-rule:evenodd;stroke-linejoin:round;stroke-miterlimit:2;">
    <g transform="matrix(0.498954,0,0,0.499477,0.536019,-0)">
        <path d="M0,0L1023.999,0C1026.416,3.435 1023.999,3.945 1023.999,52.5L1023.999,1023.999C1020.564,1026.416 1020.054,1023.999 971.5,1023.999L0,1023.999C-2.417,1020.564 -0,1020.054 0,971.5L0,0Z" style="fill:rgb(177,191,103);"/>
    </g>
    <g>
        <g transform="matrix(0.922839,0,0,0.922839,-234.160722,-223.059949)">
            <path d="M690.201,620.367C678.303,568.434 607.32,499.627 594.499,499.67C556.324,499.797 554.239,499.432 554.205,503.496C553.869,542.655 555.383,681.887 553.305,683.111C549.183,685.54 548.757,683.57 493.498,683.393C483.463,683.361 487.695,678.43 487.658,668.5C487.044,501.822 488.399,499.603 485.492,499.566C452.827,499.149 450.923,500.7 450.688,497.474C450.474,494.525 448.229,463.646 451.527,460.532C453.932,458.261 487.62,450.454 487.683,445.501C487.888,429.327 478.914,326.849 609.519,354.407C630.237,358.779 629.884,360.807 629.587,362.513C628.733,367.419 628.045,367.113 616.47,406.487C615.282,410.528 573.869,388.348 558.929,412.751C554.861,419.394 550.464,449.016 557.504,449.044C606.797,449.239 609.652,446.756 609.692,451.465C609.745,457.627 613.406,456.1 622.528,454.709C630.67,453.466 688.569,444.632 719.172,419.211C740.811,401.235 697.396,439.819 625.506,445.569C621.004,445.929 618.403,447.86 619.249,443.492C621.529,431.705 633.197,399.2 668.538,395.855C704.782,392.423 731.663,400.822 761.437,383.386C761.724,383.218 766.786,380.254 765.585,383.519C739.745,453.75 683.99,488.551 635.698,467.012C633.766,466.151 609.667,455.402 609.493,463.498C608.925,489.927 609.583,492.138 612.475,492.626C625.333,494.794 722.07,499.13 719.358,631.497C718.674,664.89 709.243,691.677 707.861,688.198C697.14,661.214 700.14,656.138 632.49,615.516C616.946,606.182 567.128,585.254 587.704,515.557C590.707,505.382 595.253,511.383 610.782,524.149C674.185,576.271 685.286,620.313 690.201,620.367Z" style="fill:rgb(75,84,32);"/>
        </g>
        <g transform="matrix(0.922839,0,0,0.922839,-234.160722,-223.059949)">
            <path d="M419.723,468.5C419.768,485.62 420.287,680.664 419.513,682.507C419.075,683.55 353.312,684.928 353.052,681.592C353.034,681.353 353.031,417.029 352.796,371.498C352.792,370.713 352.747,361.913 354.558,361.851C359.775,361.673 418.825,359.653 419.783,363.414C419.869,363.75 419.735,460.093 419.723,468.5Z" style="fill:rgb(75,84,32);"/>
        </g>
    </g>
</svg>
